<svg id="Layer_1" data-name="Layer 1" xmlns="http://www.w3.org/2000/svg" xmlns:xlink="http://www.w3.org/1999/xlink" viewBox="0 0 242.65 153.01"><defs><style>.cls-1,.cls-17,.cls-18,.cls-3{fill:none;}.cls-2{clip-path:url(#clip-path);}.cls-17,.cls-18,.cls-3{stroke:#efeae8;stroke-miterlimit:10;}.cls-3{stroke-width:0.25px;}.cls-4{clip-path:url(#clip-path-2);}.cls-5{clip-path:url(#clip-path-3);}.cls-6{clip-path:url(#clip-path-4);}.cls-12,.cls-13,.cls-14,.cls-15,.cls-16,.cls-7{fill:#efeae8;}.cls-8{fill:#564f4d;}.cls-9{fill:#f05343;}.cls-10{fill:url(#New_Pattern_7);}.cls-11{fill:#403c3d;}.cls-12{font-size:21.19px;}.cls-12,.cls-13,.cls-14{font-family:AvenirNext-UltraLight, Avenir Next;font-weight:100;}.cls-13{font-size:21.08px;}.cls-14{font-size:5.81px;letter-spacing:2.5em;}.cls-15{font-size:26.99px;}.cls-15,.cls-16{font-family:AvenirNext-Regular, Avenir Next;}.cls-16{font-size:26.78px;letter-spacing:0.03em;}.cls-17{stroke-width:2px;}.cls-18{stroke-width:0.35px;}</style><clipPath id="clip-path"><rect class="cls-1" x="43.47" y="43.8" width="49.69" height="49.69"/></clipPath><clipPath id="clip-path-2"><rect class="cls-1" x="-3.11" y="43.8" width="49.69" height="49.69"/></clipPath><clipPath id="clip-path-3"><rect class="cls-1" x="43.47" y="-2.94" width="49.69" height="49.69"/></clipPath><clipPath id="clip-path-4"><rect class="cls-1" x="-3.11" y="-2.94" width="49.69" height="49.69"/></clipPath><pattern id="New_Pattern_7" data-name="New Pattern 7" width="46.58" height="46.75" patternTransform="translate(-20.47 -34.26)" patternUnits="userSpaceOnUse" viewBox="0 0 46.58 46.75"><rect class="cls-1" width="46.58" height="46.75"/><g class="cls-2"><circle class="cls-3" cx="56.59" cy="45.14" r="10.15"/><circle class="cls-3" cx="44.89" cy="56.84" r="10.15"/></g><g class="cls-4"><circle class="cls-3" cx="45.17" cy="56.86" r="10.15"/><circle class="cls-3" cx="33.45" cy="45.14" r="10.15"/><circle class="cls-3" cx="33.45" cy="45.14" r="6.42"/><circle class="cls-3" cx="21.72" cy="33.42" r="10.15"/><circle class="cls-3" cx="21.72" cy="33.42" r="6.42"/><circle class="cls-3" cx="21.72" cy="56.86" r="10.15"/><circle class="cls-3" cx="10" cy="45.14" r="10.15"/><circle class="cls-3" cx="10" cy="45.14" r="6.42"/><circle class="cls-3" cx="-1.69" cy="56.84" r="10.15"/></g><g class="cls-5"><circle class="cls-3" cx="56.61" cy="45.25" r="10.15"/><circle class="cls-3" cx="56.59" cy="-1.6" r="10.15"/><circle class="cls-3" cx="56.61" cy="21.81" r="10.15"/><circle class="cls-3" cx="44.89" cy="10.09" r="10.15"/><circle class="cls-3" cx="44.89" cy="10.09" r="6.42"/><circle class="cls-3" cx="44.89" cy="33.53" r="10.15"/><circle class="cls-3" cx="44.89" cy="33.53" r="6.42"/><circle class="cls-3" cx="33.17" cy="21.81" r="10.15"/><circle class="cls-3" cx="33.17" cy="21.81" r="6.42"/></g><g class="cls-6"><circle class="cls-3" cx="33.47" cy="45.25" r="10.15"/><circle class="cls-3" cx="33.47" cy="45.25" r="6.42"/><circle class="cls-3" cx="21.75" cy="33.53" r="10.15"/><circle class="cls-3" cx="21.75" cy="33.53" r="6.42"/><circle class="cls-3" cx="21.75" cy="56.98" r="10.15"/><circle class="cls-3" cx="21.75" cy="56.98" r="6.42"/><circle class="cls-3" cx="10.03" cy="45.25" r="10.15"/><circle class="cls-3" cx="10.03" cy="45.25" r="6.42"/><circle class="cls-3" cx="56.89" cy="21.84" r="10.15"/><circle class="cls-3" cx="56.89" cy="21.84" r="6.42"/><circle class="cls-3" cx="45.17" cy="10.12" r="10.15"/><circle class="cls-3" cx="45.17" cy="10.12" r="6.42"/><circle class="cls-3" cx="45.17" cy="33.56" r="10.15"/><circle class="cls-3" cx="45.17" cy="33.56" r="6.42"/><circle class="cls-3" cx="33.45" cy="21.84" r="10.15"/><circle class="cls-3" cx="33.45" cy="21.84" r="6.42"/><circle class="cls-3" cx="33.45" cy="-1.6" r="10.15"/><circle class="cls-3" cx="33.45" cy="-1.6" r="6.42"/><circle class="cls-3" cx="21.72" cy="-13.32" r="10.15"/><circle class="cls-3" cx="21.72" cy="-13.32" r="6.42"/><circle class="cls-3" cx="21.72" cy="10.12" r="10.15"/><circle class="cls-3" cx="21.72" cy="10.12" r="6.42"/><circle class="cls-3" cx="10" cy="-1.6" r="10.15"/><circle class="cls-3" cx="10" cy="-1.6" r="6.42"/><circle class="cls-3" cx="10.03" cy="21.81" r="10.15"/><circle class="cls-3" cx="10.03" cy="21.81" r="6.42"/><circle class="cls-3" cx="-1.69" cy="10.09" r="10.15"/><circle class="cls-3" cx="-1.69" cy="10.09" r="6.42"/><circle class="cls-3" cx="-1.69" cy="33.53" r="10.15"/><circle class="cls-3" cx="-1.69" cy="33.53" r="6.42"/><circle class="cls-3" cx="-13.41" cy="21.81" r="10.15"/><circle class="cls-3" cx="-13.41" cy="21.81" r="6.42"/></g></pattern></defs><title>personal-identity</title><rect class="cls-7" x="44.78" y="-44.57" width="153.01" height="242.65" transform="translate(44.57 197.79) rotate(-90)"/><polygon class="cls-8" points="242.65 153.01 0 153.01 242.65 32.09 242.65 153.01"/><polygon class="cls-9" points="149.51 79.3 0 0 0 153.01 149.51 79.3"/><polygon class="cls-10" points="149.51 79.29 0 0 0 153.01 149.51 79.29"/><polygon class="cls-11" points="55.33 75.69 55.33 39.81 187.32 39.81 187.32 114.26 55.33 114.26 55.33 75.69"/><text class="cls-12" transform="translate(69.09 70.42) scale(1.07 1)">HAN</text><text class="cls-13" transform="matrix(-1.07, 0, 0, 1, 173.45, 70.39)">HAN</text><text class="cls-14" transform="translate(70.77 99.16) scale(1.07 1)">DESIGN</text><text class="cls-15" transform="translate(69.83 89.41) scale(1.07 1)">cou</text><text class="cls-16" transform="translate(125.21 89.54) scale(1.07 1)">son</text><line class="cls-17" x1="121.38" y1="89.38" x2="121.75" y2="55.68"/><polygon class="cls-18" points="63.1 75.96 63.1 47.36 179.66 47.36 179.66 106.71 63.1 106.71 63.1 75.96"/></svg>